<mxfile host="65bd71144e">
    <diagram id="6gmk5T5IcSks_UKA7TKm" name="Page-1">
        <mxGraphModel dx="3321" dy="726" grid="1" gridSize="10" guides="1" tooltips="1" connect="1" arrows="1" fold="1" page="1" pageScale="1" pageWidth="827" pageHeight="1169" math="0" shadow="0">
            <root>
                <mxCell id="0"/>
                <mxCell id="1" parent="0"/>
                <mxCell id="90" value="&lt;span style=&quot;&quot;&gt;LVM基本拓扑&lt;/span&gt;" style="swimlane;childLayout=stackLayout;resizeParent=1;resizeParentMax=0;horizontal=1;startSize=20;horizontalStack=0;html=1;shadow=0;sketch=0;strokeWidth=2;fillColor=#f5f5f5;fontColor=#333333;strokeColor=#666666;" vertex="1" parent="1">
                    <mxGeometry x="-1070" y="80" width="840" height="630" as="geometry"/>
                </mxCell>
                <mxCell id="95" value="物理磁盘" style="swimlane;startSize=20;horizontal=0;html=1;whiteSpace=wrap;shadow=0;sketch=0;strokeWidth=2;dashed=1;dashPattern=1 4;" vertex="1" parent="90">
                    <mxGeometry y="20" width="840" height="120" as="geometry"/>
                </mxCell>
                <mxCell id="91" value="分区" style="swimlane;startSize=20;horizontal=0;html=1;shadow=0;sketch=0;strokeWidth=2;dashed=1;dashPattern=1 4;" vertex="1" parent="90">
                    <mxGeometry y="140" width="840" height="80" as="geometry"/>
                </mxCell>
                <mxCell id="92" value="LVM" style="swimlane;startSize=20;horizontal=0;html=1;shadow=0;sketch=0;strokeWidth=2;dashed=1;dashPattern=1 4;" vertex="1" parent="90">
                    <mxGeometry y="220" width="840" height="250" as="geometry"/>
                </mxCell>
                <mxCell id="19" value="" style="group" vertex="1" connectable="0" parent="92">
                    <mxGeometry x="108" y="-175" width="204" height="150" as="geometry"/>
                </mxCell>
                <mxCell id="8" value="" style="group" vertex="1" connectable="0" parent="19">
                    <mxGeometry x="74" width="100" height="54" as="geometry"/>
                </mxCell>
                <mxCell id="4" value="" style="sketch=0;pointerEvents=1;shadow=0;dashed=0;html=1;strokeColor=none;fillColor=#505050;labelPosition=center;verticalLabelPosition=bottom;verticalAlign=top;outlineConnect=0;align=center;shape=mxgraph.office.devices.hard_disk;" vertex="1" parent="8">
                    <mxGeometry width="40" height="54" as="geometry"/>
                </mxCell>
                <mxCell id="7" value="磁盘1" style="text;html=1;strokeColor=none;fillColor=none;align=center;verticalAlign=middle;whiteSpace=wrap;rounded=0;" vertex="1" parent="8">
                    <mxGeometry x="40" y="12" width="60" height="30" as="geometry"/>
                </mxCell>
                <mxCell id="17" style="edgeStyle=orthogonalEdgeStyle;html=1;exitX=0.5;exitY=0;exitDx=0;exitDy=0;" edge="1" parent="19" source="15" target="4">
                    <mxGeometry relative="1" as="geometry"/>
                </mxCell>
                <mxCell id="15" value="分区1" style="rounded=1;whiteSpace=wrap;html=1;" vertex="1" parent="19">
                    <mxGeometry y="110" width="74" height="40" as="geometry"/>
                </mxCell>
                <mxCell id="18" style="edgeStyle=orthogonalEdgeStyle;html=1;exitX=0.5;exitY=0;exitDx=0;exitDy=0;" edge="1" parent="19" source="16" target="4">
                    <mxGeometry relative="1" as="geometry"/>
                </mxCell>
                <mxCell id="16" value="分区2" style="rounded=1;whiteSpace=wrap;html=1;" vertex="1" parent="19">
                    <mxGeometry x="110" y="110" width="74" height="40" as="geometry"/>
                </mxCell>
                <mxCell id="36" value="分区3" style="rounded=1;whiteSpace=wrap;html=1;" vertex="1" parent="92">
                    <mxGeometry x="668" y="-65" width="74" height="40" as="geometry"/>
                </mxCell>
                <mxCell id="21" value="" style="group" vertex="1" connectable="0" parent="92">
                    <mxGeometry x="568" y="-175" width="100" height="54" as="geometry"/>
                </mxCell>
                <mxCell id="22" value="" style="sketch=0;pointerEvents=1;shadow=0;dashed=0;html=1;strokeColor=none;fillColor=#505050;labelPosition=center;verticalLabelPosition=bottom;verticalAlign=top;outlineConnect=0;align=center;shape=mxgraph.office.devices.hard_disk;" vertex="1" parent="21">
                    <mxGeometry width="40" height="54" as="geometry"/>
                </mxCell>
                <mxCell id="23" value="磁盘1" style="text;html=1;strokeColor=none;fillColor=none;align=center;verticalAlign=middle;whiteSpace=wrap;rounded=0;" vertex="1" parent="21">
                    <mxGeometry x="40" y="12" width="60" height="30" as="geometry"/>
                </mxCell>
                <mxCell id="37" style="edgeStyle=orthogonalEdgeStyle;html=1;exitX=0.5;exitY=0;exitDx=0;exitDy=0;" edge="1" parent="92" source="36" target="22">
                    <mxGeometry relative="1" as="geometry"/>
                </mxCell>
                <mxCell id="24" style="edgeStyle=orthogonalEdgeStyle;html=1;exitX=0.5;exitY=0;exitDx=0;exitDy=0;" edge="1" parent="92" source="25" target="22">
                    <mxGeometry relative="1" as="geometry"/>
                </mxCell>
                <mxCell id="25" value="分区1" style="rounded=1;whiteSpace=wrap;html=1;" vertex="1" parent="92">
                    <mxGeometry x="448" y="-65" width="74" height="40" as="geometry"/>
                </mxCell>
                <mxCell id="26" style="edgeStyle=orthogonalEdgeStyle;html=1;exitX=0.5;exitY=0;exitDx=0;exitDy=0;" edge="1" parent="92" source="27" target="22">
                    <mxGeometry relative="1" as="geometry"/>
                </mxCell>
                <mxCell id="27" value="分区2" style="rounded=1;whiteSpace=wrap;html=1;" vertex="1" parent="92">
                    <mxGeometry x="558" y="-65" width="74" height="40" as="geometry"/>
                </mxCell>
                <mxCell id="96" style="edgeStyle=none;html=1;exitX=0.5;exitY=1;exitDx=0;exitDy=0;entryX=0.484;entryY=-0.011;entryDx=0;entryDy=0;entryPerimeter=0;" edge="1" parent="92" source="47" target="63">
                    <mxGeometry relative="1" as="geometry"/>
                </mxCell>
                <mxCell id="47" value="PV-001" style="shape=hexagon;perimeter=hexagonPerimeter2;whiteSpace=wrap;html=1;fixedSize=1;rounded=1;" vertex="1" parent="92">
                    <mxGeometry x="100.13" y="35" width="89.75" height="30" as="geometry"/>
                </mxCell>
                <mxCell id="48" value="" style="edgeStyle=orthogonalEdgeStyle;html=1;" edge="1" parent="92" source="15" target="47">
                    <mxGeometry relative="1" as="geometry"/>
                </mxCell>
                <mxCell id="99" style="edgeStyle=none;html=1;exitX=0.5;exitY=1;exitDx=0;exitDy=0;entryX=0.469;entryY=0.031;entryDx=0;entryDy=0;entryPerimeter=0;" edge="1" parent="92" source="54" target="66">
                    <mxGeometry relative="1" as="geometry"/>
                </mxCell>
                <mxCell id="54" value="PV-004" style="shape=hexagon;perimeter=hexagonPerimeter2;whiteSpace=wrap;html=1;fixedSize=1;rounded=1;" vertex="1" parent="92">
                    <mxGeometry x="550.13" y="35" width="89.75" height="30" as="geometry"/>
                </mxCell>
                <mxCell id="59" value="" style="edgeStyle=orthogonalEdgeStyle;html=1;" edge="1" parent="92" source="27" target="54">
                    <mxGeometry relative="1" as="geometry"/>
                </mxCell>
                <mxCell id="98" style="edgeStyle=none;html=1;exitX=0.5;exitY=1;exitDx=0;exitDy=0;entryX=0.498;entryY=-0.006;entryDx=0;entryDy=0;entryPerimeter=0;" edge="1" parent="92" source="52" target="63">
                    <mxGeometry relative="1" as="geometry"/>
                </mxCell>
                <mxCell id="52" value="PV-003" style="shape=hexagon;perimeter=hexagonPerimeter2;whiteSpace=wrap;html=1;fixedSize=1;rounded=1;" vertex="1" parent="92">
                    <mxGeometry x="440.13" y="35" width="89.75" height="30" as="geometry"/>
                </mxCell>
                <mxCell id="51" value="PV-002" style="shape=hexagon;perimeter=hexagonPerimeter2;whiteSpace=wrap;html=1;fixedSize=1;rounded=1;" vertex="1" parent="92">
                    <mxGeometry x="210.13" y="35" width="89.75" height="30" as="geometry"/>
                </mxCell>
                <mxCell id="56" style="edgeStyle=orthogonalEdgeStyle;html=1;exitX=0.5;exitY=1;exitDx=0;exitDy=0;" edge="1" parent="92" source="16" target="51">
                    <mxGeometry relative="1" as="geometry"/>
                </mxCell>
                <mxCell id="68" value="" style="rounded=1;arcSize=10;dashed=1;strokeColor=#d6b656;fillColor=#fff2cc;dashPattern=8 4;strokeWidth=2;shadow=0;sketch=0;" vertex="1" parent="92">
                    <mxGeometry x="60.75" y="123.5" width="450.5" height="110" as="geometry"/>
                </mxCell>
                <mxCell id="63" value="VG-1" style="shape=rect;strokeColor=#d6b656;fillColor=#fff2cc;strokeWidth=1;dashed=0;rounded=1;arcSize=20;fontSize=17;spacing=2;spacingTop=-2;align=left;autosize=1;spacingLeft=4;resizeWidth=0;resizeHeight=0;perimeter=none;" vertex="1" parent="92">
                    <mxGeometry x="261" y="95" width="50" height="40" as="geometry"/>
                </mxCell>
                <mxCell id="72" value="LV-1&lt;br&gt;/dev/root" style="rounded=0;whiteSpace=wrap;html=1;shadow=0;sketch=0;strokeWidth=2;" vertex="1" parent="92">
                    <mxGeometry x="132" y="155" width="100" height="47" as="geometry"/>
                </mxCell>
                <mxCell id="58" style="edgeStyle=orthogonalEdgeStyle;html=1;exitX=0.5;exitY=1;exitDx=0;exitDy=0;" edge="1" parent="92" source="25" target="52">
                    <mxGeometry relative="1" as="geometry"/>
                </mxCell>
                <mxCell id="73" value="LV-2&lt;br&gt;/dev/home" style="rounded=0;whiteSpace=wrap;html=1;shadow=0;sketch=0;strokeWidth=2;" vertex="1" parent="92">
                    <mxGeometry x="322" y="155" width="100" height="47" as="geometry"/>
                </mxCell>
                <mxCell id="74" value="" style="rounded=1;arcSize=10;dashed=1;strokeColor=#82b366;fillColor=#d5e8d4;dashPattern=8 4;strokeWidth=2;shadow=0;sketch=0;" vertex="1" parent="92">
                    <mxGeometry x="542" y="123.5" width="280" height="110" as="geometry"/>
                </mxCell>
                <mxCell id="75" value="LV-3&lt;br&gt;/dev/data" style="rounded=0;whiteSpace=wrap;html=1;shadow=0;sketch=0;strokeWidth=2;" vertex="1" parent="92">
                    <mxGeometry x="568" y="155" width="100" height="47" as="geometry"/>
                </mxCell>
                <mxCell id="76" value="LV-4&lt;br&gt;/dev/lib" style="rounded=0;whiteSpace=wrap;html=1;shadow=0;sketch=0;strokeWidth=2;" vertex="1" parent="92">
                    <mxGeometry x="702" y="155" width="100" height="47" as="geometry"/>
                </mxCell>
                <mxCell id="66" value="VG-2" style="shape=rect;strokeColor=#82b366;fillColor=#d5e8d4;strokeWidth=1;dashed=0;rounded=1;arcSize=20;fontSize=17;spacing=2;spacingTop=-2;align=left;autosize=1;spacingLeft=4;resizeWidth=0;resizeHeight=0;perimeter=none;" vertex="1" parent="92">
                    <mxGeometry x="572" y="95" width="50" height="40" as="geometry"/>
                </mxCell>
                <mxCell id="97" style="edgeStyle=none;html=1;exitX=0.5;exitY=1;exitDx=0;exitDy=0;entryX=0.507;entryY=0.006;entryDx=0;entryDy=0;entryPerimeter=0;" edge="1" parent="92" source="51" target="63">
                    <mxGeometry relative="1" as="geometry">
                        <mxPoint x="280" y="90" as="targetPoint"/>
                    </mxGeometry>
                </mxCell>
                <mxCell id="93" value="路径" style="swimlane;startSize=20;horizontal=0;html=1;shadow=0;sketch=0;strokeWidth=2;dashed=1;dashPattern=1 4;" vertex="1" parent="90">
                    <mxGeometry y="470" width="840" height="160" as="geometry"/>
                </mxCell>
                <mxCell id="77" value="/" style="shape=card;whiteSpace=wrap;html=1;shadow=0;sketch=0;strokeWidth=2;" vertex="1" parent="93">
                    <mxGeometry x="132" y="45" width="100" height="100" as="geometry"/>
                </mxCell>
                <mxCell id="78" value="/home" style="shape=card;whiteSpace=wrap;html=1;shadow=0;sketch=0;strokeWidth=2;" vertex="1" parent="93">
                    <mxGeometry x="322" y="45" width="100" height="100" as="geometry"/>
                </mxCell>
                <mxCell id="79" value="/data" style="shape=card;whiteSpace=wrap;html=1;shadow=0;sketch=0;strokeWidth=2;" vertex="1" parent="93">
                    <mxGeometry x="568" y="45" width="100" height="100" as="geometry"/>
                </mxCell>
                <mxCell id="81" value="/opt/lib" style="shape=card;whiteSpace=wrap;html=1;shadow=0;sketch=0;strokeWidth=2;" vertex="1" parent="93">
                    <mxGeometry x="702" y="45" width="100" height="100" as="geometry"/>
                </mxCell>
                <mxCell id="89" value="挂载" style="edgeLabel;html=1;align=center;verticalAlign=middle;resizable=0;points=[];" vertex="1" connectable="0" parent="93">
                    <mxGeometry x="752.0000000000005" y="20.003333333333444" as="geometry"/>
                </mxCell>
                <mxCell id="84" style="edgeStyle=none;html=1;exitX=0.5;exitY=1;exitDx=0;exitDy=0;" edge="1" parent="90" source="72" target="77">
                    <mxGeometry relative="1" as="geometry"/>
                </mxCell>
                <mxCell id="85" value="挂载" style="edgeLabel;html=1;align=center;verticalAlign=middle;resizable=0;points=[];" vertex="1" connectable="0" parent="84">
                    <mxGeometry x="0.1287" relative="1" as="geometry">
                        <mxPoint y="16" as="offset"/>
                    </mxGeometry>
                </mxCell>
                <mxCell id="83" style="edgeStyle=none;html=1;exitX=0.5;exitY=1;exitDx=0;exitDy=0;" edge="1" parent="90" source="73" target="78">
                    <mxGeometry relative="1" as="geometry"/>
                </mxCell>
                <mxCell id="86" value="挂载" style="edgeLabel;html=1;align=center;verticalAlign=middle;resizable=0;points=[];" vertex="1" connectable="0" parent="83">
                    <mxGeometry x="0.1402" relative="1" as="geometry">
                        <mxPoint y="15" as="offset"/>
                    </mxGeometry>
                </mxCell>
                <mxCell id="80" style="edgeStyle=none;html=1;exitX=0.5;exitY=1;exitDx=0;exitDy=0;" edge="1" parent="90" source="75" target="79">
                    <mxGeometry relative="1" as="geometry"/>
                </mxCell>
                <mxCell id="88" value="挂载" style="edgeLabel;html=1;align=center;verticalAlign=middle;resizable=0;points=[];" vertex="1" connectable="0" parent="80">
                    <mxGeometry x="0.2303" y="-1" relative="1" as="geometry">
                        <mxPoint x="1" y="11" as="offset"/>
                    </mxGeometry>
                </mxCell>
                <mxCell id="82" style="edgeStyle=none;html=1;exitX=0.5;exitY=1;exitDx=0;exitDy=0;" edge="1" parent="90" source="76" target="81">
                    <mxGeometry relative="1" as="geometry"/>
                </mxCell>
            </root>
        </mxGraphModel>
    </diagram>
</mxfile>